<svg width="39" height="40" viewBox="0 0 39 40" fill="none" xmlns="http://www.w3.org/2000/svg">
<path fill-rule="evenodd" clip-rule="evenodd" d="M17.0227 21.6338L12.4769 2.91946C11.9459 0.75639 9.68869 -0.499082 7.57008 0.188812L2.6502 1.78692C0.531597 2.47481 -0.556472 4.81836 0.285739 6.87942L7.60932 24.6914C8.36783 26.5511 10.4315 27.5084 12.3435 26.8885L14.4856 26.1927C16.395 25.5729 17.5014 23.585 17.0227 21.6338ZM17.7027 39.7408C14.9381 40.638 11.9668 39.1262 11.0697 36.3615C10.1725 33.5969 11.6843 30.6256 14.449 29.7285C17.2136 28.8313 20.1849 30.3431 21.0821 33.1078C21.9818 35.8724 20.4674 38.8437 17.7027 39.7408ZM28.6253 34.9362C35.3709 32.7444 40.8165 24.9683 38.1068 16.6299C35.397 8.2915 26.4204 5.20252 19.6775 7.39436C18.1082 7.9044 17.1953 9.5365 17.5903 11.1425L18.2808 13.9463C18.7176 15.7249 20.5746 16.7581 22.314 16.1931L22.5834 16.1042C25.6854 15.0946 28.5704 16.9438 29.3682 19.4704C30.2104 21.9814 28.9627 25.1723 25.8581 26.182L25.5887 26.2709C23.8493 26.8359 22.9548 28.7635 23.6453 30.4584L24.7334 33.1315C25.3585 34.6616 27.0586 35.4463 28.6253 34.9362Z" fill="#E31E52"/>
</svg>
